{"title":"Dakota.Skye.2008.DVDRIP.XviD-ZEKTORM","uid":5017783,"size":740339788,"categoryP":"video","categoryS":"movies","magnet":"?xt=urn:btih:5adfe841db3d1078d3d7b88c059c0ef71038df6f&amp;dn=Dakota.Skye.2008.DVDRIP.XviD-ZEKTORM&amp;tr=udp%3A%2F%2Ftracker.openbittorrent.com%3A80&amp;tr=udp%3A%2F%2Fopen.demonii.com%3A1337&amp;tr=udp%3A%2F%2Ftracker.coppersurfer.tk%3A6969&amp;tr=udp%3A%2F%2Fexodus.desync.com%3A6969","seeders":0,"leechers":1,"uploader":"blowley","files":5,"time":1248304077,"description":"Title                            : Dakota Skye\nYear                             : 2008\nGenre                            : Drama\niMDB URL                         : http://www.imdb.com/title/tt0907848/\nAwards                           : 2 wins\n\nComplete name                    : DS-ZEKTORM.avi\nFormat                           : AVI\nFile size                        : 701 MiB\nDuration                         : 1h 28mn\nOverall bit rate                 : 1103 Kbps\nSubtitles                        : English (Format: VobSub)\nSource                           : DVD NTSC\n\nVideo\nFormat                           : MPEG-4 Visual\nFormat profile                   : Streaming Video@L1\nCodec ID                         : XVID\nCodec ID/Hint                    : XviD\nDuration                         : 1h 28mn\nBit rate                         : 982 Kbps\nWidth                            : 720 pixels\nHeight                           : 416 pixels\nDisplay aspect ratio             : 16/9\nFrame rate                       : 23.976 fps\nResolution                       : 24 bits\nColorimetry                      : 4:2:0\nScan type                        : Progressive\nBits/(Pixel*Frame)               : 0.137\nStream size                      : 624 MiB (89%)\nWriting library                  : XviD\n\nAudio\nFormat                           : MPEG Audio\nFormat version                   : Version 1\nFormat profile                   : Layer 3\nCodec ID                         : 55\nCodec ID/Hint                    : MP3\nDuration                         : 1h 28mn\nBit rate mode                    : Variable\nBit rate                         : 108 Kbps\nMinimum bit rate                 : 128 Kbps\nChannel(s)                       : 2 channels\nSampling rate                    : 48.0 KHz\nResolution                       : 16 bits\nStream size                      : 68.5 MiB (10%)\nWriting library                  : LAME3.98r\nEncoding settings                : ABR\n","torrent":{"xt":"urn:btih:5adfe841db3d1078d3d7b88c059c0ef71038df6f","amp;dn":"Dakota.Skye.2008.DVDRIP.XviD-ZEKTORM","amp;tr":["udp%3A%2F%2Ftracker.openbittorrent.com%3A80","udp%3A%2F%2Fopen.demonii.com%3A1337","udp%3A%2F%2Ftracker.coppersurfer.tk%3A6969","udp%3A%2F%2Fexodus.desync.com%3A6969"],"infoHash":"5adfe841db3d1078d3d7b88c059c0ef71038df6f","infoHashBuffer":{"type":"Buffer","data":[90,223,232,65,219,61,16,120,211,215,184,140,5,156,14,247,16,56,223,111]},"announce":[],"urlList":[]}}